DBRep_DrawableShape

CASCADE Topology V1, (c) Matra-Datavision
Locations 0
Curve2ds 0
Curves 4
3 0 0 0 0 0 1 1 0 -0 -0 1 0 2 2
3 0 0 0 0 0 1 1 0 -0 -0 1 0 2 2
3 0 0 0 0 0 1 1 0 -0 -0 1 0 0.5 0.5
3 0 0 0 0 0 1 1 0 -0 -0 1 0 0.5 0.5
Polygon3D 0
PolygonOnTriangulations 0
Surfaces 1
1 0 0 0 0 0 1 1 0 -0 -0 1 0 
Triangulations 0

TShapes 13
Ve
1e-07
-3.67394039744206e-16 -2 0
0 0

0101101
*
Ve
1e-07
6.12323399573677e-16 2 0
0 0

0101101
*
Ed
 1e-07 1 1 0
1  1 0 4.71238898038469 7.85398163397448
0

0101000
+13 0 -12 0 *
Ed
 1e-07 1 1 0
1  2 0 1.5707963267949 4.71238898038469
0

0101000
+12 0 -13 0 *
Wi

0101100
+11 0 +10 0 *
Ve
1e-07
-9.18485099360515e-17 -0.5 0
0 0

0101101
*
Ve
1e-07
1.53080849893419e-16 0.5 0
0 0

0101101
*
Ed
 1e-07 1 1 0
1  3 0 4.71238898038469 7.85398163397448
0

0101000
+8 0 -7 0 *
Ed
 1e-07 1 1 0
1  4 0 1.5707963267949 4.71238898038469
0

0101000
+7 0 -8 0 *
Wi

0101100
+6 0 +5 0 *
Fa
0  1e-07 1 0

0111000
+9 0 -4 0 *
Sh

0101000
+3 0 *
Co

1100000
+2 0 *

+1 0 
##EGADS HEADER FILE-REV 1 ##
0
  0  1  1  2  4  4  3
3 16 3
__keepEdgeAttr__
#yes
1 5 1
_body
3
1 5 1
_brch
7
    2 0 6
1 8 1
_scaleuv
1
1 5 2
_body
1 1 
1 5 2
_brch
3 1 
1 5 2
_hist
1 3 
1 9 4
__trace__
1 1 3 1 
1 7 3
_faceID
1 1 1 
    4 0 5
1 5 2
_body
1 -3 
1 6 1
_nface
1
1 9 4
__trace__
1 1 3 1 
3 7 13
bc_name
#5000_farfield
1 7 5
_edgeID
0 0 1 1 4 
    4 1 5
1 5 2
_body
1 -3 
1 6 1
_nface
1
1 9 4
__trace__
1 2 3 2 
3 7 13
bc_name
#5000_farfield
1 7 5
_edgeID
0 0 1 1 1 
    4 2 5
1 5 2
_body
1 -3 
1 6 1
_nface
1
1 9 4
__trace__
2 1 3 3 
3 7 13
bc_name
#4000_cylinder
1 7 5
_edgeID
0 0 1 1 3 
    4 3 5
1 5 2
_body
1 -3 
1 6 1
_nface
1
1 9 4
__trace__
2 2 3 4 
3 7 13
bc_name
#4000_cylinder
1 7 5
_edgeID
0 0 1 1 2 
    5 0 3
1 9 4
__trace__
1 1 3 1 
1 7 1
_nodeID
1
1 6 1
_nedge
2
    5 1 3
1 9 4
__trace__
1 2 3 2 
1 7 1
_nodeID
2
1 6 1
_nedge
2
    5 2 3
1 9 4
__trace__
2 1 3 3 
1 7 1
_nodeID
3
1 6 1
_nedge
2
    5 3 3
1 9 4
__trace__
2 2 3 4 
1 7 1
_nodeID
4
1 6 1
_nedge
2
    0 0 0
