DBRep_DrawableShape

CASCADE Topology V1, (c) Matra-Datavision
Locations 0
Curve2ds 76
1 0 0 1 0 
1 0 4.7123889803846897 1 0 
1 0 0 1 0 
1 0 4.7123889803846897 1 0 
1 0 5 0 -1 
1 6.2831853071795862 5 0 -1 
1 0 2.25 1 0 
1 3.1415926535897931 0 0 1 
1 3.1415926535897931 0 0 1 
1 0 0 0 1 
1 3.1415926535897931 0 0 1 
1 3.1415926535897931 0 0 1 
1 0 0 0 1 
1 0 6.2831853071795862 1 0 
1 0 2 1 0 
1 0 2.25 1 0 
1 0 6.2831853071795862 1 0 
1 3.1415926535897931 2 1 0 
1 0 0.5 1 0 
1 0 0.5 1 0 
1 0 0.5 1 0 
1 0 0.5 1 0 
1 0 0.5 1 0 
1 0 0.5 1 0 
1 0 0.5 1 0 
1 0 0.5 1 0 
1 0 0.5 1 0 
1 0 0.5 1 0 
1 3.1415926535897931 5 0 -1 
1 3.1415926535897931 5 0 -1 
1 0 3 1 0 
1 0 0 1 0 
1 0 0 0 1 
1 6.2831853071795862 0 0 1 
1 3.1415926535897931 3 1 0 
1 0 0 1 0 
1 0 0 1 0 
1 6.2831853071795862 -0 0 1 
1 0 -0 0 1 
1 3.1415926535897931 0 0 1 
1 3.1415926535897931 0 0 1 
1 0 0 1 0 
1 0 0 1 0 
1 6.2831853071795862 -0 0 1 
1 0 -0 0 1 
1 3.1415926535897931 0 0 1 
1 3.1415926535897931 0 0 1 
1 0 0 1 0 
1 0 0 1 0 
1 6.2831853071795862 -0 0 1 
1 0 -0 0 1 
1 3.1415926535897931 0 0 1 
1 3.1415926535897931 0 0 1 
1 0 0 1 0 
1 0 0 1 0 
1 6.2831853071795862 -0 0 1 
1 0 -0 0 1 
1 3.1415926535897931 0 0 1 
1 3.1415926535897931 0 0 1 
1 0 0 1 0 
1 0 0 1 0 
1 6.2831853071795862 -0 0 1 
1 0 -0 0 1 
1 3.1415926535897931 0 0 1 
1 3.1415926535897931 0 0 1 
1 0 0 1 0 
1 0 0 0 1 
1 3.1415926535897931 0 0 1 
1 3.1415926535897931 0 0 1 
1 0 0 0 1 
1 0 1.5707963267948966 1 0 
1 0 1.5707963267948966 1 0 
1 0 2.75 1 0 
1 0 2.75 1 0 
1 0 5 1 0 
1 0 5 1 0 
Curves 60
1 -12 0 -2.5 1 0 0 
2 0 0 -2.5 0 0 1 1 0 -0 -0 1 0 8
1 8 0 -2.5 1 0 0 
2 0 0 -2.5 0 0 1 1 0 -0 -0 1 0 10
2 0 0 -2.5 0 0 1 1 0 -0 -0 1 0 8
2 0 0 -2.5 0 0 1 -1 1.224646799147353e-16 0 -1.224646799147353e-16 -1 0 10
1 8 0 2.5 0 0 -1 
2 0 0 -0.25 0 0 1 1 0 -0 -0 1 0 8
1 -8 0 -2.5 0 0 1 
2 10 0 -0.5 0 -1 0 1 0 0 -0 0 1 2
2 -10 1.2246467991473533e-15 -0.5 1.2246467991473532e-16 1 -0 -1 1.2246467991473532e-16 0 0 0 1 2
2 0 0 -0.5 0 0 1 1 0 -0 -0 1 0 12
2 0 0 -0.25 0 0 1 1 0 -0 -0 1 0 8
2 0 0 -0.5 0 0 1 -1 1.224646799147353e-16 0 -1.224646799147353e-16 -1 0 12
2 5 0 -0.25 0 0 -1 -1 0 -0 0 1 0 1
2 5 0 -0.25 0 0 -1 -1 0 -0 0 1 0 1
2 1.5450849718747361 -4.7552825814757682 -0.25 0 0 -1 -1 0 -0 0 1 0 1
2 1.5450849718747361 -4.7552825814757682 -0.25 0 0 -1 -1 0 -0 0 1 0 1
2 1.5450849718747373 4.7552825814757673 -0.25 0 0 -1 -1 0 -0 0 1 0 1
2 1.5450849718747373 4.7552825814757673 -0.25 0 0 -1 -1 0 -0 0 1 0 1
2 -4.0450849718747373 -2.938926261462365 -0.25 0 0 -1 -1 0 -0 0 1 0 1
2 -4.0450849718747373 -2.938926261462365 -0.25 0 0 -1 -1 0 -0 0 1 0 1
2 -4.0450849718747364 2.9389262614623664 -0.25 0 0 -1 -1 0 -0 0 1 0 1
2 -4.0450849718747364 2.9389262614623664 -0.25 0 0 -1 -1 0 -0 0 1 0 1
1 -12 0 2.5 0 0 -1 
2 0 0 0.5 0 0 1 1 0 -0 -0 1 0 12
1 12 0 -2.5 0 0 1 
2 0 0 0.5 0 0 1 -1 1.224646799147353e-16 0 -1.224646799147353e-16 -1 0 12
2 5 0 0.25 0 0 -1 -1 0 -0 0 1 0 1
1 4 -2.4492935982947069e-16 0.25 0 0 -1 
7 0 0  1 2 2  6 1.2246467991473532e-16 0.25  6 1.2246467991473532e-16 -0.25 
 0 2 0.5 2
2 5 0 0.25 0 0 -1 -1 0 -0 0 1 0 1
2 1.5450849718747361 -4.7552825814757682 0.25 0 0 -1 -1 0 -0 0 1 0 1
1 0.54508497187473615 -4.7552825814757682 0.25 0 0 -1 
7 0 0  1 2 2  2.5450849718747364 -4.7552825814757682 0.25  2.5450849718747364 -4.7552825814757682 -0.25 
 0 2 0.5 2
2 1.5450849718747361 -4.7552825814757682 0.25 0 0 -1 -1 0 -0 0 1 0 1
2 1.5450849718747373 4.7552825814757673 0.25 0 0 -1 -1 0 -0 0 1 0 1
1 0.54508497187473726 4.7552825814757673 0.25 0 0 -1 
7 0 0  1 2 2  2.5450849718747373 4.7552825814757673 0.25  2.5450849718747373 4.7552825814757673 -0.25 
 0 2 0.5 2
2 1.5450849718747373 4.7552825814757673 0.25 0 0 -1 -1 0 -0 0 1 0 1
2 -4.0450849718747373 -2.938926261462365 0.25 0 0 -1 -1 0 -0 0 1 0 1
1 -5.0450849718747373 -2.9389262614623655 0.25 0 0 -1 
7 0 0  1 2 2  -3.0450849718747373 -2.938926261462365 0.25  -3.0450849718747373 -2.938926261462365 -0.25 
 0 2 0.5 2
2 -4.0450849718747373 -2.938926261462365 0.25 0 0 -1 -1 0 -0 0 1 0 1
2 -4.0450849718747364 2.9389262614623664 0.25 0 0 -1 -1 0 -0 0 1 0 1
1 -5.0450849718747364 2.9389262614623659 0.25 0 0 -1 
7 0 0  1 2 2  -3.0450849718747364 2.9389262614623664 0.25  -3.0450849718747364 2.9389262614623664 -0.25 
 0 2 0.5 2
2 -4.0450849718747364 2.9389262614623664 0.25 0 0 -1 -1 0 -0 0 1 0 1
2 10 0 0.5 0 -1 0 1 0 0 -0 0 1 2
2 -10 1.2246467991473533e-15 0.5 1.2246467991473532e-16 1 -0 -1 1.2246467991473532e-16 0 0 0 1 2
2 0 0 2.5 0 0 1 1 0 -0 -0 1 0 10
2 0 0 2.5 0 0 1 -1 1.224646799147353e-16 0 -1.224646799147353e-16 -1 0 10
2 0 0 0.25 0 0 1 1 0 -0 -0 1 0 8
2 0 0 0.25 0 0 1 1 0 -0 -0 1 0 8
1 -8 0 2.5 -1 0 0 
2 0 0 2.5 0 0 1 1 0 -0 -0 1 0 8
1 12 0 2.5 -1 0 0 
2 0 0 2.5 0 0 1 1 0 -0 -0 1 0 8
1 8 0 2.5 0 0 -1 
1 -8 0 -2.5 0 0 1 
Polygon3D 0
PolygonOnTriangulations 0
Surfaces 26
1 0 0 -2.5 0 0 1 1 0 -0 -0 1 0 
2 0 0 -2.5 0 0 1 1 0 0 0 1 0 8
5 0 0 -0.5 0 0 1 1 0 -0 -0 1 0 10 2
1 0 0 -2.5 0 0 1 1 0 -0 -0 1 0 
2 0 0 -2.5 0 0 1 1 0 0 0 1 0 8
5 0 0 -0.5 0 0 1 -1 1.224646799147353e-16 0 -1.224646799147353e-16 -1 0 10 2
2 0 0 -2.5 0 0 1 1 0 0 0 1 0 12
2 0 0 -2.5 0 0 1 1 0 0 0 1 0 12
1 0 0 -0.25 0 0 -1 -1 0 -0 0 1 0 
10 3.1415926535897931 6.2831853071795862 0 0.5
2 5 0 0.25 0 0 -1 -1 0 -0 0 1 0 1
10 0 3.1415926535897931 0 0.5
2 5 0 0.25 0 0 -1 -1 0 -0 0 1 0 1
10 3.1415926535897931 6.2831853071795862 0 0.5
2 1.5450849718747361 -4.7552825814757682 0.25 0 0 -1 -1 0 -0 0 1 0 1
10 0 3.1415926535897931 0 0.5
2 1.5450849718747361 -4.7552825814757682 0.25 0 0 -1 -1 0 -0 0 1 0 1
10 3.1415926535897931 6.2831853071795862 0 0.5
2 1.5450849718747373 4.7552825814757673 0.25 0 0 -1 -1 0 -0 0 1 0 1
10 0 3.1415926535897931 0 0.5
2 1.5450849718747373 4.7552825814757673 0.25 0 0 -1 -1 0 -0 0 1 0 1
10 3.1415926535897931 6.2831853071795862 0 0.5
2 -4.0450849718747373 -2.938926261462365 0.25 0 0 -1 -1 0 -0 0 1 0 1
10 0 3.1415926535897931 0 0.5
2 -4.0450849718747373 -2.938926261462365 0.25 0 0 -1 -1 0 -0 0 1 0 1
10 3.1415926535897931 6.2831853071795862 0 0.5
2 -4.0450849718747364 2.9389262614623664 0.25 0 0 -1 -1 0 -0 0 1 0 1
10 0 3.1415926535897931 0 0.5
2 -4.0450849718747364 2.9389262614623664 0.25 0 0 -1 -1 0 -0 0 1 0 1
5 0 0 0.5 0 0 1 1 0 -0 -0 1 0 10 2
5 0 0 0.5 0 0 1 -1 1.224646799147353e-16 0 -1.224646799147353e-16 -1 0 10 2
1 0 0 2.5 0 0 1 1 0 -0 -0 1 0 
1 0 0 2.5 0 0 1 1 0 -0 -0 1 0 
1 0 0 0.25 0 0 -1 -1 0 -0 0 1 0 
2 0 0 -2.5 0 0 1 1 0 0 0 1 0 8
2 0 0 -2.5 0 0 1 1 0 0 0 1 0 8
Triangulations 0

TShapes 161
Ve
1e-07
-10 0 -2.5
0 0

0101101
*
Ve
1e-07
-8 0 -2.5
0 0

0101101
*
Ed
 1e-07 1 1 0
1  1 0 2 4
0

0101000
+161 0 -160 0 *
Ve
1e-07
8 0 -2.5
0 0

0101101
*
Ed
 1e-07 1 1 0
1  2 0 0 3.14159265358979
2  1 2 0 0 3.14159265358979
0

0101000
+158 0 -160 0 *
Ve
1e-07
10 0 -2.5
0 0

0101101
*
Ed
 1e-07 1 1 0
1  3 0 0 2
0

0101000
-156 0 +158 0 *
Ed
 1e-07 1 1 0
1  4 0 0 3.14159265358979
2  2 3 0 0 3.14159265358979
4 G1 1 0 3 0
0

0101000
+156 0 -161 0 *
Wi

0101100
+159 0 -157 0 +155 0 +154 0 *
Fa
0  1e-07 1 0

0111000
+153 0 *
Ed
 1e-07 1 1 0
1  5 0 3.14159265358979 6.28318530717959
2  3 5 0 3.14159265358979 6.28318530717959
0

0101000
+160 0 -158 0 *
Ed
 1e-07 1 1 0
1  6 0 0 3.14159265358979
2  4 6 0 0 3.14159265358979
4 G1 4 0 6 0
0

0101000
+161 0 -156 0 *
Wi

0101100
-155 0 -151 0 -159 0 +150 0 *
Fa
0  1e-07 4 0

0111000
+149 0 *
Ve
1.00000001959435e-07
8 0 -0.25
0 0

0101101
*
Ed
 1e-07 1 1 0
1  7 0 2.75 5
2  5 2 0 2.75 5
2  6 5 0 2.75 5
0

0101000
+147 0 -158 0 *
Ve
1.00000000979717e-07
-8 0 -0.25
0 0

0101101
*
Ed
 1e-07 1 1 0
1  8 0 0 3.14159265358979
2  7 2 0 0 3.14159265358979
0

0101000
+147 0 -145 0 *
Ed
 1e-07 1 1 0
1  9 0 0 2.25
2  8 2 0 0 2.25
2  9 5 0 0 2.25
0

0101000
+160 0 -145 0 *
Wi

0101100
+157 0 +146 0 -144 0 +143 0 *
Fa
0  1e-07 2 0

0111000
+142 0 *
Ve
1e-07
12 0 -0.5
0 0

0101101
*
Ed
 1e-07 1 1 0
1  10 0 4.71238898038469 6.28318530717959
2  10 3 0 4.71238898038469 6.28318530717959
2  11 6 0 4.71238898038469 6.28318530717959
4 G1 3 0 6 0
0

0101000
+156 0 -140 0 *
Ve
1e-07
-12 0 -0.5
0 0

0101101
*
Ed
 1e-07 1 1 0
1  11 0 4.71238898038469 6.28318530717959
2  12 3 0 4.71238898038469 6.28318530717959
2  13 6 0 4.71238898038469 6.28318530717959
4 G1 3 0 6 0
0

0101000
+161 0 -138 0 *
Ed
 1e-07 1 1 0
1  12 0 0 3.14159265358979
2  14 3 0 0 3.14159265358979
2  15 7 0 0 3.14159265358979
4 G1 3 0 7 0
0

0101000
+140 0 -138 0 *
Wi

0101100
-139 0 +154 0 +137 0 -136 0 *
Fa
0  1e-07 3 0

0111000
+135 0 *
Ed
 1e-07 1 1 0
1  13 0 3.14159265358979 6.28318530717959
2  16 5 0 3.14159265358979 6.28318530717959
0

0101000
+145 0 -147 0 *
Wi

0101100
-143 0 -133 0 -146 0 +151 0 *
Fa
0  1e-07 5 0

0111000
+132 0 *
Ed
 1e-07 1 1 0
1  14 0 0 3.14159265358979
2  17 6 0 0 3.14159265358979
2  18 8 0 0 3.14159265358979
4 G1 6 0 8 0
0

0101000
+138 0 -140 0 *
Wi

0101100
-137 0 +150 0 +139 0 -130 0 *
Fa
0  1e-07 6 0

0111000
+129 0 *
Wi

0101100
-144 0 -133 0 *
Ve
1.50001e-07
4 -2.44929359829471e-16 -0.25
0 0

0101101
*
Ve
1e-05
6 1.22464679914735e-16 -0.25
0 0

0101101
*
Ed
 1e-07 1 1 0
1  15 0 3.14159265358979 6.28318530717959
2  19 10 0 3.14159265358979 6.28318530717959
0

0101000
-126 0 +125 0 *
Ed
 1e-07 1 1 0
1  16 0 0 3.14159265358979
2  20 11 0 0 3.14159265358979
0

0101000
-125 0 +126 0 *
Wi

0101100
-124 0 -123 0 *
Ve
1.50001e-07
0.545084971874736 -4.75528258147577 -0.25
0 0

0101101
*
Ve
1e-05
2.54508497187474 -4.75528258147577 -0.25
0 0

0101101
*
Ed
 1e-07 1 1 0
1  17 0 3.14159265358979 6.28318530717959
2  21 12 0 3.14159265358979 6.28318530717959
0

0101000
-121 0 +120 0 *
Ed
 1e-07 1 1 0
1  18 0 0 3.14159265358979
2  22 13 0 0 3.14159265358979
0

0101000
-120 0 +121 0 *
Wi

0101100
-119 0 -118 0 *
Ve
1.50001e-07
0.545084971874737 4.75528258147577 -0.25
0 0

0101101
*
Ve
1e-05
2.54508497187474 4.75528258147577 -0.25
0 0

0101101
*
Ed
 1e-07 1 1 0
1  19 0 3.14159265358979 6.28318530717959
2  23 14 0 3.14159265358979 6.28318530717959
0

0101000
-116 0 +115 0 *
Ed
 1e-07 1 1 0
1  20 0 0 3.14159265358979
2  24 15 0 0 3.14159265358979
0

0101000
-115 0 +116 0 *
Wi

0101100
-114 0 -113 0 *
Ve
1.50001e-07
-5.04508497187474 -2.93892626146237 -0.25
0 0

0101101
*
Ve
1e-05
-3.04508497187474 -2.93892626146237 -0.25
0 0

0101101
*
Ed
 1e-07 1 1 0
1  21 0 3.14159265358979 6.28318530717959
2  25 16 0 3.14159265358979 6.28318530717959
0

0101000
-111 0 +110 0 *
Ed
 1e-07 1 1 0
1  22 0 0 3.14159265358979
2  26 17 0 0 3.14159265358979
0

0101000
-110 0 +111 0 *
Wi

0101100
-109 0 -108 0 *
Ve
1.50001e-07
-5.04508497187474 2.93892626146237 -0.25
0 0

0101101
*
Ve
1e-05
-3.04508497187474 2.93892626146237 -0.25
0 0

0101101
*
Ed
 1e-07 1 1 0
1  23 0 3.14159265358979 6.28318530717959
2  27 18 0 3.14159265358979 6.28318530717959
0

0101000
-106 0 +105 0 *
Ed
 1e-07 1 1 0
1  24 0 0 3.14159265358979
2  28 19 0 0 3.14159265358979
0

0101000
-105 0 +106 0 *
Wi

0101100
-104 0 -103 0 *
Fa
0  1e-07 9 0

0111000
+127 0 +122 0 +117 0 +112 0 +107 0 +102 0 *
Ve
1e-07
-12 0 0.5
0 0

0101101
*
Ed
 1e-07 1 1 0
1  25 0 2 3
2  29 7 0 2 3
2  30 8 0 2 3
0

0101000
+100 0 -138 0 *
Ve
1e-07
12 0 0.5
0 0

0101101
*
Ed
 1e-07 1 1 0
1  26 0 0 3.14159265358979
2  31 7 0 0 3.14159265358979
2  32 20 0 0 3.14159265358979
4 G1 7 0 20 0
0

0101000
+98 0 -100 0 *
Ed
 1e-07 1 1 0
1  27 0 2 3
2  33 7 0 2 3
2  34 8 0 2 3
0

0101000
+140 0 -98 0 *
Wi

0101100
-99 0 -97 0 -96 0 +136 0 *
Fa
0  1e-07 7 0

0111000
+95 0 *
Ed
 1e-07 1 1 0
1  28 0 0 3.14159265358979
2  35 8 0 0 3.14159265358979
2  36 21 0 0 3.14159265358979
4 G1 8 0 21 0
0

0101000
+100 0 -98 0 *
Wi

0101100
+99 0 +130 0 +96 0 -93 0 *
Fa
0  1e-07 8 0

0111000
+92 0 *
Ve
1e-05
6 1.22464679914735e-16 0.25
0 0

0101101
*
Ve
1.50001e-07
4 -2.44929359829471e-16 0.25
0 0

0101101
*
Ed
 1e-07 1 1 0
1  29 0 3.14159265358979 6.28318530717959
2  37 10 0 3.14159265358979 6.28318530717959
0

0101000
+90 0 -89 0 *
Ed
 1e-07 1 1 0
1  30 0 0 0.5
2  38 10 0 0 0.5
2  39 11 0 0 0.5
0

0101000
-126 0 +89 0 *
Ed
 1e-05 1 1 0
1  31 0 0 0.5
2  40 10 0 0 0.5
2  41 11 0 0 0.5
0

0101000
+90 0 -125 0 *
Wi

0101100
+88 0 +87 0 -124 0 -86 0 *
Fa
0  1e-07 10 0

0111000
+85 0 *
Ed
 1e-07 1 1 0
1  32 0 0 3.14159265358979
2  42 11 0 0 3.14159265358979
0

0101000
+89 0 -90 0 *
Wi

0101100
-123 0 -87 0 +83 0 +86 0 *
Fa
0  1e-07 11 0

0111000
+82 0 *
Ve
1e-05
2.54508497187474 -4.75528258147577 0.25
0 0

0101101
*
Ve
1.50001e-07
0.545084971874736 -4.75528258147577 0.25
0 0

0101101
*
Ed
 1e-07 1 1 0
1  33 0 3.14159265358979 6.28318530717959
2  43 12 0 3.14159265358979 6.28318530717959
0

0101000
+80 0 -79 0 *
Ed
 1e-07 1 1 0
1  34 0 0 0.5
2  44 12 0 0 0.5
2  45 13 0 0 0.5
0

0101000
-121 0 +79 0 *
Ed
 1e-05 1 1 0
1  35 0 0 0.5
2  46 12 0 0 0.5
2  47 13 0 0 0.5
0

0101000
+80 0 -120 0 *
Wi

0101100
+78 0 +77 0 -119 0 -76 0 *
Fa
0  1e-07 12 0

0111000
+75 0 *
Ed
 1e-07 1 1 0
1  36 0 0 3.14159265358979
2  48 13 0 0 3.14159265358979
0

0101000
+79 0 -80 0 *
Wi

0101100
-118 0 -77 0 +73 0 +76 0 *
Fa
0  1e-07 13 0

0111000
+72 0 *
Ve
1e-05
2.54508497187474 4.75528258147577 0.25
0 0

0101101
*
Ve
1.50001e-07
0.545084971874737 4.75528258147577 0.25
0 0

0101101
*
Ed
 1e-07 1 1 0
1  37 0 3.14159265358979 6.28318530717959
2  49 14 0 3.14159265358979 6.28318530717959
0

0101000
+70 0 -69 0 *
Ed
 1e-07 1 1 0
1  38 0 0 0.5
2  50 14 0 0 0.5
2  51 15 0 0 0.5
0

0101000
-116 0 +69 0 *
Ed
 1e-05 1 1 0
1  39 0 0 0.5
2  52 14 0 0 0.5
2  53 15 0 0 0.5
0

0101000
+70 0 -115 0 *
Wi

0101100
+68 0 +67 0 -114 0 -66 0 *
Fa
0  1e-07 14 0

0111000
+65 0 *
Ed
 1e-07 1 1 0
1  40 0 0 3.14159265358979
2  54 15 0 0 3.14159265358979
0

0101000
+69 0 -70 0 *
Wi

0101100
-113 0 -67 0 +63 0 +66 0 *
Fa
0  1e-07 15 0

0111000
+62 0 *
Ve
1e-05
-3.04508497187474 -2.93892626146237 0.25
0 0

0101101
*
Ve
1.50001e-07
-5.04508497187474 -2.93892626146237 0.25
0 0

0101101
*
Ed
 1e-07 1 1 0
1  41 0 3.14159265358979 6.28318530717959
2  55 16 0 3.14159265358979 6.28318530717959
0

0101000
+60 0 -59 0 *
Ed
 1e-07 1 1 0
1  42 0 0 0.5
2  56 16 0 0 0.5
2  57 17 0 0 0.5
0

0101000
-111 0 +59 0 *
Ed
 1e-05 1 1 0
1  43 0 0 0.5
2  58 16 0 0 0.5
2  59 17 0 0 0.5
0

0101000
+60 0 -110 0 *
Wi

0101100
+58 0 +57 0 -109 0 -56 0 *
Fa
0  1e-07 16 0

0111000
+55 0 *
Ed
 1e-07 1 1 0
1  44 0 0 3.14159265358979
2  60 17 0 0 3.14159265358979
0

0101000
+59 0 -60 0 *
Wi

0101100
-108 0 -57 0 +53 0 +56 0 *
Fa
0  1e-07 17 0

0111000
+52 0 *
Ve
1e-05
-3.04508497187474 2.93892626146237 0.25
0 0

0101101
*
Ve
1.50001e-07
-5.04508497187474 2.93892626146237 0.25
0 0

0101101
*
Ed
 1e-07 1 1 0
1  45 0 3.14159265358979 6.28318530717959
2  61 18 0 3.14159265358979 6.28318530717959
0

0101000
+50 0 -49 0 *
Ed
 1e-07 1 1 0
1  46 0 0 0.5
2  62 18 0 0 0.5
2  63 19 0 0 0.5
0

0101000
-106 0 +49 0 *
Ed
 1e-05 1 1 0
1  47 0 0 0.5
2  64 18 0 0 0.5
2  65 19 0 0 0.5
0

0101000
+50 0 -105 0 *
Wi

0101100
+48 0 +47 0 -104 0 -46 0 *
Fa
0  1e-07 18 0

0111000
+45 0 *
Ed
 1e-07 1 1 0
1  48 0 0 3.14159265358979
2  66 19 0 0 3.14159265358979
0

0101000
+49 0 -50 0 *
Wi

0101100
-103 0 -47 0 +43 0 +46 0 *
Fa
0  1e-07 19 0

0111000
+42 0 *
Ve
1e-07
10 0 2.5
0 0

0101101
*
Ed
 1e-07 1 1 0
1  49 0 0 1.5707963267949
2  67 20 0 0 1.5707963267949
2  68 21 0 0 1.5707963267949
4 G1 20 0 21 0
0

0101000
+98 0 -40 0 *
Ve
1e-07
-10 0 2.5
0 0

0101101
*
Ed
 1e-07 1 1 0
1  50 0 0 1.5707963267949
2  69 20 0 0 1.5707963267949
2  70 21 0 0 1.5707963267949
4 G1 20 0 21 0
0

0101000
+100 0 -38 0 *
Ed
 1e-07 1 1 0
1  51 0 0 3.14159265358979
2  71 20 0 0 3.14159265358979
4 G1 20 0 22 0
0

0101000
+40 0 -38 0 *
Wi

0101100
-39 0 +97 0 +37 0 -36 0 *
Fa
0  1e-07 20 0

0111000
+35 0 *
Ed
 1e-07 1 1 0
1  52 0 0 3.14159265358979
2  72 21 0 0 3.14159265358979
4 G1 21 0 23 0
0

0101000
+38 0 -40 0 *
Wi

0101100
-37 0 +93 0 +39 0 -33 0 *
Fa
0  1e-07 21 0

0111000
+32 0 *
Ve
1.00000001959435e-07
8 0 0.25
0 0

0101101
*
Ve
1.00000000979717e-07
-8 0 0.25
0 0

0101101
*
Ed
 1e-07 1 1 0
1  53 0 0 3.14159265358979
2  73 25 0 0 3.14159265358979
0

0101000
+30 0 -29 0 *
Ed
 1e-07 1 1 0
1  54 0 3.14159265358979 6.28318530717959
2  74 26 0 3.14159265358979 6.28318530717959
0

0101000
+29 0 -30 0 *
Wi

0101100
-28 0 -27 0 *
Wi

0101100
-83 0 -88 0 *
Wi

0101100
-73 0 -78 0 *
Wi

0101100
-63 0 -68 0 *
Wi

0101100
-53 0 -58 0 *
Wi

0101100
-43 0 -48 0 *
Fa
0  1e-07 24 0

0111000
+26 0 +25 0 +24 0 +23 0 +22 0 +21 0 *
Ve
1e-07
-8 0 2.5
0 0

0101101
*
Ed
 1e-07 1 1 0
1  55 0 0 2
0

0101000
-38 0 +19 0 *
Ve
1e-07
8 0 2.5
0 0

0101101
*
Ed
 1e-07 1 1 0
1  56 0 0 3.14159265358979
2  75 25 0 0 3.14159265358979
0

0101000
+17 0 -19 0 *
Ed
 1e-07 1 1 0
1  57 0 2 4
0

0101000
+40 0 -17 0 *
Wi

0101100
-18 0 -16 0 -15 0 +36 0 *
Fa
0  1e-07 22 0

0111000
+14 0 *
Ed
 1e-07 1 1 0
1  58 0 3.14159265358979 6.28318530717959
2  76 26 0 3.14159265358979 6.28318530717959
0

0101000
+19 0 -17 0 *
Wi

0101100
+15 0 -12 0 +18 0 +33 0 *
Fa
0  1e-07 23 0

0111000
+11 0 *
Ed
 1e-07 1 1 0
1  59 0 0 2.25
2  5 25 0 0 2.25
2  6 26 0 0 2.25
0

0101000
+17 0 -30 0 *
Ed
 1e-07 1 1 0
1  60 0 2.75 5
2  8 25 0 2.75 5
2  9 26 0 2.75 5
0

0101000
+29 0 -19 0 *
Wi

0101100
+28 0 +9 0 -16 0 +8 0 *
Fa
0  1e-07 25 0

0111000
+7 0 *
Wi

0101100
-8 0 -12 0 -9 0 +27 0 *
Fa
0  1e-07 26 0

0111000
+5 0 *
Sh

0101100
-152 0 -148 0 -141 0 +134 0 -131 0 +128 0 +101 0 +94 0 +91 0 -84 0 
-81 0 -74 0 -71 0 -64 0 -61 0 -54 0 -51 0 -44 0 -41 0 +34 0 
+31 0 -20 0 +13 0 +10 0 -6 0 -4 0 *
So

0100000
+3 0 *
Co

1100000
+2 0 *

+1 0 
##EGADS HEADER FILE-REV 1 ##
0
  1  1  26  36  60  36  0
    0 0 0
